<svg width="52" height="48" viewBox="0 0 52 48" fill="none" xmlns="http://www.w3.org/2000/svg">
<path d="M13.9937 34.3997H10.7374V33.4003C10.7374 32.9339 10.6958 32.6369 10.6125 32.5092C10.5292 32.3815 10.3904 32.3177 10.1961 32.3177C9.98511 32.3177 9.8241 32.4037 9.71306 32.5758C9.60757 32.7479 9.55483 33.0089 9.55483 33.3587C9.55483 33.8084 9.6159 34.1471 9.73805 34.3747C9.85464 34.6023 10.185 34.8771 10.7291 35.1992C12.2892 36.1264 13.2719 36.887 13.6772 37.481C14.0825 38.0751 14.2852 39.0328 14.2852 40.3542C14.2852 41.3147 14.1713 42.0226 13.9437 42.4779C13.7216 42.9331 13.2886 43.3162 12.6445 43.6271C12.0005 43.9325 11.251 44.0852 10.396 44.0852C9.45767 44.0852 8.6554 43.9075 7.98916 43.5522C7.32847 43.1969 6.89541 42.7444 6.68998 42.1947C6.48456 41.6451 6.38184 40.865 6.38184 39.8545V38.9718H9.63811V40.6124C9.63811 41.1176 9.68253 41.4424 9.77136 41.5868C9.86574 41.7311 10.0295 41.8033 10.2627 41.8033C10.4959 41.8033 10.668 41.7117 10.7791 41.5285C10.8956 41.3453 10.9539 41.0732 10.9539 40.7123C10.9539 39.9184 10.8457 39.3993 10.6291 39.155C10.4071 38.9107 9.86019 38.5026 8.98852 37.9308C8.11685 37.3533 7.53944 36.9342 7.25629 36.6732C6.97314 36.4123 6.73717 36.0514 6.5484 35.5906C6.36519 35.1298 6.27358 34.5412 6.27358 33.825C6.27358 32.7924 6.40405 32.0373 6.665 31.5598C6.9315 31.0823 7.359 30.7103 7.94752 30.4438C8.53603 30.1718 9.24669 30.0358 10.0795 30.0358C10.99 30.0358 11.7645 30.1829 12.403 30.4772C13.0471 30.7714 13.4718 31.1434 13.6772 31.5931C13.8882 32.0373 13.9937 32.7951 13.9937 33.8667V34.3997ZM21.4473 30.3189L23.4543 43.802H19.8649L19.6901 41.3786H18.4325L18.2243 43.802H14.5933L16.3755 30.3189H21.4473ZM19.5901 38.9884C19.4125 37.4616 19.2348 35.5767 19.0571 33.3337C18.7018 35.9098 18.4797 37.7947 18.3909 38.9884H19.5901ZM36.9291 30.3189L35.3718 43.802H30.9912C30.5915 41.7311 30.2389 39.3771 29.9336 36.7398C29.7948 37.8669 29.47 40.221 28.9592 43.802H24.6036L23.0379 30.3189H26.4441L26.8022 35.0243L27.1686 39.5631C27.2963 37.2145 27.6184 34.1332 28.1347 30.3189H31.7824C31.8324 30.7131 31.96 32.1955 32.1655 34.7661L32.5486 39.8879C32.7429 36.6288 33.0677 33.4392 33.5229 30.3189H36.9291ZM43.5166 30.3189L45.5237 43.802H41.9343L41.7594 41.3786H40.5018L40.2936 43.802H36.6626L38.4448 30.3189H43.5166ZM41.6594 38.9884C41.4818 37.4616 41.3041 35.5767 41.1265 33.3337C40.7711 35.9098 40.549 37.7947 40.4602 38.9884H41.6594Z" fill="#044bb7"/>
<path d="M49.6828 13.6795C49.6677 13.588 49.6477 13.4977 49.6313 13.4061C51.3376 9.56865 51.3602 5.18691 51.3602 4.98375V3.32335L49.8986 4.11341C49.8772 4.12721 47.8034 5.21701 44.2718 5.37627C43.7423 5.40136 43.1778 5.40386 42.5818 5.37627C37.6111 1.86737 31.6725 -0.0112795 25.5873 5.09521e-05C23.4784 -0.00122253 21.3755 0.222853 19.3143 0.668468C15.4575 1.50787 11.808 3.1112 8.58136 5.38379C4.14891 5.52676 1.49046 4.12973 1.46787 4.11092L0 3.30454V4.98124C0 5.18063 0.0225861 9.34918 1.60336 13.1139C1.236 14.821 1.05138 16.5622 1.0526 18.3083C1.0526 20.8704 1.71502 23.8262 2.73249 26.6404C3.64708 29.1661 4.84772 31.5752 6.11986 33.4801C3.64959 29.7806 3.03234 22.7753 3.03234 18.3058C3.03234 17.8142 3.04907 17.3251 3.08252 16.8385C3.14055 15.9444 3.25197 15.0545 3.41623 14.1736L3.5693 14.0821C3.68472 14.0821 3.80264 14.0821 3.91806 14.0921C15.4113 14.4269 25.5082 22.1182 25.5082 31.535C25.5082 21.989 36.0467 14.21 47.752 14.0796C47.8774 14.7242 47.969 15.3775 48.0355 16.0322C48.1108 16.7846 48.1509 17.5521 48.1509 18.3108C48.1509 19.0695 48.0368 19.8257 48.0368 20.5682C48.0368 24.9436 45.1512 33.1503 45.0258 33.3848C45.3921 32.7427 46.5953 30.6258 47.7281 28.1503C48.861 25.6747 49.9224 22.8393 50.004 20.765C50.0328 19.9536 50.1294 19.1347 50.1294 18.3058C50.1294 17.4769 50.088 16.6467 50.004 15.8302C49.9262 15.1092 49.8208 14.3868 49.6828 13.6795Z" fill="#044bb7"/>
<path d="M40.1153 25.6083C39.3889 26.3607 38.4329 26.7369 37.2649 26.7369C35.6064 26.7369 34.3794 26.7445 34.3693 26.7445H33.5576V25.9331C33.6061 24.6348 34.1614 23.4072 35.1045 22.5132C36.3717 21.3394 38.2535 20.8478 40.6937 21.0522L41.4163 21.1137L41.4389 21.836C41.4364 21.9326 41.4929 24.1849 40.1153 25.6083Z" fill="#044bb7"/>
<path d="M17.4976 25.9331L17.4901 26.7445H16.6784C16.6658 26.7445 15.4413 26.7369 13.7853 26.7369C12.6173 26.7369 11.6525 26.3607 10.9349 25.6083C9.55483 24.1849 9.61129 21.9326 9.61631 21.836L9.63888 21.1137L10.359 21.0522C12.8017 20.8478 14.6811 21.3394 15.9494 22.5132C16.8931 23.4069 17.4489 24.6346 17.4976 25.9331Z" fill="#044bb7"/>
</svg>
