<?xml version="1.0" standalone="no"?>
<!DOCTYPE svg PUBLIC "-//W3C//DTD SVG 20010904//EN"
 "http://www.w3.org/TR/2001/REC-SVG-20010904/DTD/svg10.dtd">
<svg version="1.0" xmlns="http://www.w3.org/2000/svg"
 width="280.000000pt" height="280.000000pt" viewBox="0 0 280.000000 280.000000"
 preserveAspectRatio="xMidYMid meet">
<metadata>
Created by potrace 1.14, written by Peter Selinger 2001-2017
</metadata>
<g transform="translate(0.000000,280.000000) scale(0.100000,-0.100000)"
fill="#000000" stroke="none">
<path d="M1225 2553 c-246 -32 -453 -102 -650 -221 -108 -65 -142 -69 -323
-37 -45 8 -135 41 -172 64 -19 11 -39 21 -44 21 -10 0 -1 -204 13 -282 13 -78
42 -180 54 -196 9 -11 5 -95 -8 -152 -7 -31 -8 -244 -1 -285 26 -162 79 -330
157 -492 56 -118 80 -140 30 -28 -27 59 -64 246 -78 390 -14 151 -8 454 10
472 7 6 87 5 147 -2 436 -51 818 -302 964 -632 28 -65 61 -201 51 -211 -3 -4
-31 -6 -63 -7 -31 0 -57 -5 -57 -10 1 -17 17 -169 20 -185 2 -8 6 -44 9 -80 4
-36 9 -76 11 -90 2 -14 7 -52 10 -85 3 -33 8 -71 10 -85 2 -14 6 -52 10 -85
10 -99 1 -93 129 -93 l114 0 7 51 c4 29 9 68 12 87 3 19 7 46 9 60 2 14 7 54
10 89 8 73 19 63 27 -24 4 -33 11 -85 16 -115 6 -30 13 -72 16 -94 3 -21 7
-42 10 -46 3 -4 57 -8 120 -8 111 0 115 1 116 21 0 12 2 29 4 37 1 8 6 47 10
85 7 69 11 106 20 175 2 19 7 58 10 85 7 72 14 135 19 175 3 19 8 58 11 85 l6
50 -90 1 -90 1 -7 -41 c-3 -23 -8 -48 -9 -56 -1 -8 -6 -46 -9 -85 -4 -38 -9
-86 -11 -105 -2 -19 -7 -66 -10 -105 -7 -87 -15 -96 -16 -19 -1 32 -2 70 -3
84 -2 14 -6 68 -10 120 -9 120 -17 194 -23 200 -2 2 -46 5 -97 5 l-94 2 -8
-66 c-5 -36 -9 -70 -9 -76 -1 -5 -5 -46 -9 -90 -5 -44 -10 -91 -11 -105 -2
-14 -4 -47 -5 -75 l-2 -50 -9 49 c-4 27 -11 92 -14 145 -3 53 -8 113 -11 134
-2 20 -5 57 -6 82 -1 43 -6 50 -37 45 -31 -4 17 182 76 289 134 244 423 447
757 531 114 29 270 49 325 41 11 -1 25 -134 25 -221 0 -63 -11 -220 -18 -265
-17 -105 -78 -337 -119 -449 -33 -88 -22 -76 47 54 70 133 141 301 167 399 26
95 35 350 16 451 -12 60 -11 69 11 129 23 64 44 154 57 240 8 54 15 231 9 231
-3 0 -31 -13 -63 -29 -90 -46 -190 -68 -338 -75 -52 -3 -63 1 -118 36 -149 97
-361 182 -549 220 -96 19 -377 32 -461 21z"/>
<path d="M543 1433 c-10 -25 7 -127 28 -170 26 -53 82 -101 129 -110 19 -3 85
-7 145 -7 l110 -1 3 28 c2 16 -5 54 -14 85 -26 81 -90 144 -175 170 -77 24
-218 27 -226 5z"/>
<path d="M2034 1440 c-126 -27 -224 -141 -224 -260 l0 -36 128 1 c145 2 190
17 237 79 47 62 75 206 42 219 -18 7 -146 5 -183 -3z"/>
<path d="M477 959 c-48 -14 -93 -56 -105 -101 -15 -56 -8 -162 15 -200 10 -18
52 -57 93 -86 119 -84 122 -87 128 -143 5 -53 -8 -79 -38 -79 -20 0 -33 39
-30 92 4 61 6 59 -86 57 l-86 -1 4 -78 c8 -141 59 -185 213 -185 145 0 195 42
201 167 6 145 -19 191 -154 275 -78 49 -92 66 -92 112 0 42 9 61 30 61 22 0
30 -19 30 -71 l0 -39 85 0 85 0 1 28 c4 98 -15 144 -73 173 -50 26 -161 34
-221 18z"/>
<path d="M899 945 c0 -5 -2 -19 -4 -30 -2 -11 -7 -42 -10 -70 -3 -27 -8 -61
-10 -75 -5 -30 -13 -88 -20 -150 -3 -25 -7 -56 -10 -70 -2 -14 -7 -49 -10 -79
-4 -30 -8 -63 -11 -74 -2 -10 -6 -45 -10 -76 -3 -31 -7 -60 -8 -66 0 -6 38
-11 97 -11 l97 -2 1 29 c1 16 3 38 4 49 1 11 3 27 4 35 1 10 12 15 34 15 l34
0 2 -57 c1 -32 7 -60 13 -64 17 -11 183 -5 182 6 -1 6 -12 75 -24 155 -12 80
-24 161 -26 180 -2 19 -9 60 -14 90 -5 30 -11 73 -14 95 -4 22 -11 72 -17 110
l-11 70 -134 1 c-86 0 -134 -4 -135 -11z m150 -232 c1 -32 4 -71 6 -88 16
-109 16 -122 -4 -128 -44 -11 -47 10 -25 170 3 21 7 52 9 68 7 55 11 48 14
-22z"/>
<path d="M2065 920 c-3 -19 -7 -55 -10 -80 -3 -25 -7 -56 -10 -70 -2 -14 -7
-50 -10 -80 -3 -30 -8 -62 -10 -70 -2 -8 -7 -42 -10 -75 -3 -33 -10 -89 -16
-125 -6 -36 -13 -90 -16 -122 l-5 -56 96 0 96 0 1 34 c1 19 3 39 4 44 1 6 3
19 4 30 1 16 8 20 34 20 l34 0 2 -56 c1 -31 4 -60 6 -64 7 -12 190 -6 188 5
-1 6 -6 46 -12 90 -6 44 -13 91 -16 105 -2 14 -6 41 -9 60 -12 84 -27 188 -32
220 -2 19 -9 64 -15 100 -5 36 -12 79 -14 95 l-5 30 -135 1 -134 0 -6 -36z
m159 -255 c4 -55 9 -114 12 -131 5 -25 2 -32 -14 -36 -45 -12 -48 3 -27 152 2
14 6 47 10 73 4 27 8 47 10 45 1 -1 6 -48 9 -103z"/>
</g>
</svg>
