<svg width="20" height="20" viewBox="0 0 20 20" fill="none" xmlns="http://www.w3.org/2000/svg">
<g clip-path="url(#clip0_569_314)">
<path d="M18.0012 0H1.99875C1.46936 0.00230245 0.962305 0.213624 0.587964 0.587964C0.213624 0.962305 0.00230245 1.46936 0 1.99875V18.0012C0.00230245 18.5306 0.213624 19.0377 0.587964 19.412C0.962305 19.7864 1.46936 19.9977 1.99875 20H18.0012C18.5306 19.9977 19.0377 19.7864 19.412 19.412C19.7864 19.0377 19.9977 18.5306 20 18.0012V1.99875C19.9977 1.46936 19.7864 0.962305 19.412 0.587964C19.0377 0.213624 18.5306 0.00230245 18.0012 0V0ZM5.8725 12.0537C6.0824 12.1496 6.30912 12.2031 6.53971 12.2113C6.7703 12.2194 7.00024 12.1821 7.21639 12.1013C7.43254 12.0206 7.63066 11.8981 7.79943 11.7407C7.96821 11.5834 8.10432 11.3943 8.2 11.1844H9.58375C8.72125 14.7163 3.5225 14.0913 3.5225 10.455C3.5225 6.81563 8.72125 6.19062 9.58375 9.72563H8.2C7.69187 8.60938 6.22437 8.34188 5.35812 9.21125C4.48875 10.0769 4.75562 11.545 5.8725 12.0531V12.0537ZM15.3256 12.7569C15.0638 12.9835 14.764 13.162 14.44 13.2844C13.9787 13.4628 13.4811 13.527 12.9896 13.4715C12.4982 13.416 12.0274 13.2424 11.6175 12.9656V13.2844H10.3575V4.47563H11.6075V7.9C12.0539 7.59819 12.5709 7.4175 13.1081 7.37562H13.3325C16.1775 7.36937 17.4862 10.9106 15.325 12.7563L15.3256 12.7569ZM15.14 10.4525C15.1444 10.6855 15.1023 10.917 15.0162 11.1335C14.9301 11.35 14.8017 11.5472 14.6385 11.7135C14.4753 11.8798 14.2806 12.0119 14.0657 12.1021C13.8509 12.1923 13.6202 12.2387 13.3872 12.2387C13.1542 12.2387 12.9235 12.1923 12.7087 12.1021C12.4938 12.0119 12.2991 11.8798 12.1359 11.7135C11.9727 11.5472 11.8443 11.35 11.7582 11.1335C11.6721 10.917 11.63 10.6855 11.6344 10.4525C11.6831 8.1675 15.0881 8.1675 15.14 10.4525Z" fill="#034AB5"/>
</g>
<defs>
<clipPath id="clip0_569_314">
<rect width="20" height="20" fill="white"/>
</clipPath>
</defs>
</svg>
