<svg width="20" height="20" viewBox="0 0 20 20" fill="none" xmlns="http://www.w3.org/2000/svg">
<g clip-path="url(#clip0_569_320)">
<path d="M16.9307 3.74333C15.6557 3.16833 14.2891 2.74333 12.8599 2.50167C12.8472 2.49922 12.834 2.5008 12.8222 2.50617C12.8104 2.51155 12.8006 2.52046 12.7941 2.53167C12.6191 2.83917 12.4241 3.24 12.2874 3.55667C10.7717 3.3302 9.23067 3.3302 7.71491 3.55667C7.56269 3.20572 7.39104 2.86352 7.20075 2.53167C7.19429 2.52032 7.18454 2.51121 7.17277 2.50555C7.16101 2.49989 7.1478 2.49795 7.13491 2.5C5.70658 2.74166 4.33991 3.16667 3.06408 3.7425C3.0531 3.7471 3.0438 3.75495 3.03741 3.765C0.444079 7.5775 -0.266754 11.2958 0.0824122 14.9675C0.0833839 14.9765 0.0861752 14.9852 0.0906163 14.9931C0.0950575 15.001 0.101056 15.0078 0.108246 15.0133C1.62191 16.1154 3.31019 16.9548 5.10241 17.4967C5.11491 17.5005 5.12827 17.5005 5.14076 17.4966C5.15324 17.4928 5.16428 17.4852 5.17241 17.475C5.55807 16.9592 5.89983 16.412 6.19408 15.8392C6.19816 15.8313 6.20052 15.8227 6.20098 15.8139C6.20144 15.8051 6.20001 15.7963 6.19677 15.788C6.19353 15.7798 6.18856 15.7724 6.1822 15.7663C6.17584 15.7601 6.16824 15.7554 6.15991 15.7525C5.62158 15.5498 5.09998 15.3051 4.59991 15.0208C4.59093 15.0157 4.58335 15.0084 4.57788 14.9996C4.5724 14.9909 4.56918 14.9809 4.56852 14.9705C4.56786 14.9602 4.56978 14.9499 4.57409 14.9405C4.5784 14.9311 4.58499 14.9229 4.59325 14.9167C4.69825 14.8392 4.80325 14.7583 4.90325 14.6775C4.91225 14.6702 4.92309 14.6656 4.93457 14.6641C4.94604 14.6627 4.9577 14.6644 4.96825 14.6692C8.24075 16.1392 11.7849 16.1392 15.0191 14.6692C15.0297 14.6641 15.0414 14.6621 15.0531 14.6635C15.0647 14.6648 15.0757 14.6694 15.0849 14.6767C15.1849 14.7583 15.2891 14.8392 15.3949 14.9167C15.4032 14.9228 15.4099 14.9308 15.4144 14.9402C15.4188 14.9495 15.4209 14.9598 15.4204 14.9701C15.4199 14.9804 15.4169 14.9904 15.4116 14.9993C15.4062 15.0082 15.3988 15.0156 15.3899 15.0208C14.8916 15.3075 14.3732 15.55 13.8291 15.7517C13.8207 15.7547 13.8131 15.7595 13.8067 15.7657C13.8004 15.7719 13.7954 15.7794 13.7922 15.7877C13.789 15.796 13.7875 15.8048 13.788 15.8137C13.7885 15.8226 13.7908 15.8313 13.7949 15.8392C14.0949 16.4117 14.4382 16.9567 14.8157 17.4742C14.8236 17.4848 14.8345 17.4927 14.8471 17.4969C14.8596 17.5011 14.8731 17.5013 14.8857 17.4975C16.681 16.9572 18.3721 16.1173 19.8874 15.0133C19.8948 15.0082 19.901 15.0015 19.9056 14.9937C19.9102 14.986 19.9131 14.9773 19.9141 14.9683C20.3307 10.7233 19.2157 7.035 16.9566 3.76666C16.951 3.75604 16.9419 3.74776 16.9307 3.74333ZM6.68325 12.7317C5.69825 12.7317 4.88575 11.8408 4.88575 10.7483C4.88575 9.655 5.68241 8.765 6.68325 8.765C7.69158 8.765 8.49658 9.6625 8.48075 10.7483C8.48075 11.8417 7.68408 12.7317 6.68325 12.7317ZM13.3291 12.7317C12.3432 12.7317 11.5316 11.8408 11.5316 10.7483C11.5316 9.655 12.3274 8.765 13.3291 8.765C14.3374 8.765 15.1424 9.6625 15.1266 10.7483C15.1266 11.8417 14.3382 12.7317 13.3291 12.7317Z" fill="#034AB5"/>
</g>
<defs>
<clipPath id="clip0_569_320">
<rect width="20" height="20" fill="white"/>
</clipPath>
</defs>
</svg>
