<svg width="20" height="20" viewBox="0 0 20 20" fill="none" xmlns="http://www.w3.org/2000/svg">
<path d="M3.64317 6.05334C3.65338 5.9519 3.63971 5.84947 3.60324 5.75426C3.56678 5.65904 3.50853 5.57368 3.43317 5.50501L1.8765 3.61584V3.33334H6.70817L10.4432 11.5875L13.7265 3.33334H18.3332V3.61584L17.0023 4.90001C16.9459 4.94355 16.9024 5.00159 16.8765 5.06793C16.8505 5.13427 16.843 5.20642 16.8548 5.27668V14.7217C16.843 14.7919 16.8505 14.8641 16.8765 14.9304C16.9024 14.9968 16.9459 15.0548 17.0023 15.0983L18.3023 16.3833V16.6667H11.7657V16.3842L13.1123 15.0675C13.2448 14.9342 13.2448 14.895 13.2448 14.6917V7.05668L9.5015 16.635H8.9965L4.63817 7.05668V13.4767C4.60234 13.7458 4.6915 14.0183 4.87984 14.2133L6.63067 16.3533V16.635H1.6665V16.3533L3.4165 14.2133C3.5091 14.1167 3.57782 13.9998 3.61717 13.8719C3.65653 13.744 3.66543 13.6086 3.64317 13.4767V6.05334Z" fill="#034AB5"/>
</svg>
