<svg  width="30" height="24" viewBox="0 0 30 24" fill="none" xmlns="http://www.w3.org/2000/svg">
<path d="M25.3962 2.61423C23.4837 1.75173 21.4337 1.11423 19.29 0.751735C19.2709 0.748069 19.2511 0.750431 19.2334 0.758494C19.2157 0.766556 19.201 0.77992 19.1912 0.796735C18.9287 1.25798 18.6362 1.85923 18.4312 2.33423C16.1576 1.99453 13.8461 1.99453 11.5725 2.33423C11.3442 1.80781 11.0867 1.29451 10.8012 0.796735C10.7916 0.779713 10.7769 0.766047 10.7593 0.75756C10.7416 0.749073 10.7218 0.746168 10.7025 0.749234C8.55999 1.11173 6.50999 1.74923 4.59624 2.61298C4.57978 2.61989 4.56582 2.63167 4.55624 2.64673C0.66624 8.36548 -0.40001 13.943 0.12374 19.4505C0.125198 19.464 0.129385 19.477 0.136047 19.4888C0.142708 19.5007 0.151705 19.511 0.16249 19.5192C2.43298 21.1723 4.96541 22.4315 7.65374 23.2442C7.67248 23.25 7.69253 23.25 7.71126 23.2442C7.72999 23.2384 7.74654 23.2271 7.75874 23.2117C8.33723 22.4381 8.84986 21.6173 9.29124 20.758C9.29737 20.7462 9.3009 20.7333 9.30159 20.7201C9.30229 20.7068 9.30013 20.6936 9.29527 20.6813C9.29042 20.669 9.28296 20.6578 9.27343 20.6486C9.26389 20.6394 9.25249 20.6324 9.23999 20.628C8.4325 20.3239 7.6501 19.9569 6.89999 19.5305C6.88651 19.5228 6.87515 19.5119 6.86694 19.4987C6.85872 19.4855 6.8539 19.4705 6.85291 19.4551C6.85192 19.4396 6.85478 19.4241 6.86126 19.41C6.86773 19.3959 6.8776 19.3836 6.88999 19.3742C7.04749 19.258 7.20499 19.1367 7.35499 19.0155C7.36849 19.0046 7.38476 18.9976 7.40197 18.9954C7.41919 18.9932 7.43667 18.9958 7.45249 19.003C12.3612 21.208 17.6775 21.208 22.5287 19.003C22.5446 18.9954 22.5623 18.9925 22.5797 18.9944C22.5972 18.9964 22.6137 19.0033 22.6275 19.0142C22.7775 19.1367 22.9337 19.258 23.0925 19.3742C23.105 19.3834 23.115 19.3955 23.1217 19.4095C23.1284 19.4235 23.1315 19.4389 23.1308 19.4544C23.13 19.4699 23.1254 19.4849 23.1175 19.4982C23.1095 19.5115 23.0983 19.5226 23.085 19.5305C22.3375 19.9605 21.56 20.3242 20.7437 20.6267C20.7312 20.6313 20.7198 20.6385 20.7102 20.6478C20.7007 20.6571 20.6933 20.6683 20.6884 20.6808C20.6836 20.6932 20.6814 20.7065 20.6821 20.7198C20.6828 20.7331 20.6864 20.7461 20.6925 20.758C21.1425 21.6167 21.6575 22.4342 22.2237 23.2105C22.2355 23.2264 22.2519 23.2383 22.2707 23.2446C22.2895 23.2508 22.3098 23.2512 22.3287 23.2455C25.0217 22.435 27.5582 21.1752 29.8312 19.5192C29.8423 19.5115 29.8516 19.5014 29.8585 19.4898C29.8654 19.4782 29.8698 19.4652 29.8712 19.4517C30.4962 13.0842 28.8237 7.55173 25.435 2.64923C25.4267 2.6333 25.4129 2.62088 25.3962 2.61423ZM10.025 16.0967C8.54749 16.0967 7.32874 14.7605 7.32874 13.1217C7.32874 11.4817 8.52374 10.1467 10.025 10.1467C11.5375 10.1467 12.745 11.493 12.7212 13.1217C12.7212 14.7617 11.5262 16.0967 10.025 16.0967ZM19.9937 16.0967C18.515 16.0967 17.2975 14.7605 17.2975 13.1217C17.2975 11.4817 18.4912 10.1467 19.9937 10.1467C21.5062 10.1467 22.7137 11.493 22.69 13.1217C22.69 14.7617 21.5075 16.0967 19.9937 16.0967Z" fill="#CCDAE0"/>
</svg>
