<svg width="30" height="30" viewBox="0 0 30 30" fill="none" xmlns="http://www.w3.org/2000/svg">
<path fill-rule="evenodd" clip-rule="evenodd" d="M10.1901 3.40398C11.4342 3.34671 11.8309 3.33398 15 3.33398C18.1691 3.33398 18.5657 3.34777 19.8088 3.40398C21.0518 3.4602 21.9003 3.65853 22.6427 3.94595C23.4201 4.23974 24.1254 4.69898 24.7088 5.29292C25.3027 5.8752 25.7609 6.57944 26.0536 7.35792C26.3421 8.10035 26.5394 8.94883 26.5966 10.1897C26.6539 11.436 26.6666 11.8326 26.6666 15.0007C26.6666 18.1697 26.6529 18.5664 26.5966 19.8105C26.5404 21.0514 26.3421 21.8999 26.0536 22.6423C25.7609 23.4209 25.3019 24.1263 24.7088 24.7094C24.1254 25.3034 23.4201 25.7616 22.6427 26.0543C21.9003 26.3428 21.0518 26.54 19.8109 26.5973C18.5657 26.6546 18.1691 26.6673 15 26.6673C11.8309 26.6673 11.4342 26.6535 10.1901 26.5973C8.94922 26.5411 8.10074 26.3428 7.35831 26.0543C6.57974 25.7615 5.87433 25.3026 5.29119 24.7094C4.69766 24.1268 4.23834 23.4217 3.94528 22.6434C3.65786 21.901 3.46059 21.0525 3.40331 19.8116C3.34604 18.5653 3.33331 18.1687 3.33331 15.0007C3.33331 11.8316 3.3471 11.4349 3.40331 10.1919C3.45953 8.94883 3.65786 8.10035 3.94528 7.35792C4.23878 6.57953 4.69844 5.87447 5.29225 5.29186C5.87457 4.69846 6.57927 4.23915 7.35725 3.94595C8.09968 3.65853 8.94816 3.46126 10.1891 3.40398H10.1901ZM19.7144 5.50398C18.4841 5.44777 18.115 5.43611 15 5.43611C11.885 5.43611 11.5159 5.44777 10.2856 5.50398C9.14755 5.55595 8.53028 5.7458 8.11877 5.90595C7.57468 6.11808 7.18543 6.36944 6.7771 6.77777C6.39003 7.15434 6.09214 7.61277 5.90528 8.11944C5.74513 8.53095 5.55528 9.14823 5.50331 10.2863C5.4471 11.5166 5.43543 11.8857 5.43543 15.0007C5.43543 18.1157 5.4471 18.4847 5.50331 19.715C5.55528 20.8531 5.74513 21.4703 5.90528 21.8819C6.09195 22.3878 6.38998 22.847 6.7771 23.2235C7.15362 23.6107 7.61286 23.9087 8.11877 24.0953C8.53028 24.2555 9.14755 24.4453 10.2856 24.4973C11.5159 24.5535 11.8839 24.5652 15 24.5652C18.116 24.5652 18.4841 24.5535 19.7144 24.4973C20.8524 24.4453 21.4697 24.2555 21.8812 24.0953C22.4253 23.8832 22.8145 23.6319 23.2229 23.2235C23.61 22.847 23.908 22.3878 24.0947 21.8819C24.2548 21.4703 24.4447 20.8531 24.4966 19.715C24.5529 18.4847 24.5645 18.1157 24.5645 15.0007C24.5645 11.8857 24.5529 11.5166 24.4966 10.2863C24.4447 9.14823 24.2548 8.53095 24.0947 8.11944C23.8826 7.57535 23.6312 7.18611 23.2229 6.77777C22.8463 6.39073 22.3878 6.09284 21.8812 5.90595C21.4697 5.7458 20.8524 5.55595 19.7144 5.50398ZM13.5098 18.5972C14.342 18.9436 15.2687 18.9903 16.1316 18.7294C16.9944 18.4685 17.7399 17.9162 18.2408 17.1667C18.7416 16.4172 18.9667 15.517 18.8776 14.62C18.7885 13.723 18.3907 12.8847 17.7523 12.2484C17.3452 11.8416 16.8531 11.5301 16.3112 11.3364C15.7694 11.1427 15.1913 11.0715 14.6187 11.128C14.046 11.1845 13.493 11.3672 12.9995 11.6631C12.5059 11.9589 12.0841 12.3605 11.7644 12.839C11.4447 13.3174 11.235 13.8608 11.1505 14.43C11.066 14.9992 11.1088 15.5801 11.2757 16.1307C11.4426 16.6814 11.7296 17.1883 12.1159 17.6147C12.5022 18.0412 12.9783 18.3768 13.5098 18.5972ZM10.7597 10.7603C11.3165 10.2035 11.9776 9.76179 12.7051 9.46043C13.4327 9.15907 14.2125 9.00396 15 9.00396C15.7875 9.00396 16.5673 9.15907 17.2948 9.46043C18.0224 9.76179 18.6834 10.2035 19.2403 10.7603C19.7971 11.3172 20.2388 11.9783 20.5402 12.7058C20.8416 13.4334 20.9967 14.2132 20.9967 15.0007C20.9967 15.7881 20.8416 16.5679 20.5402 17.2955C20.2388 18.023 19.7971 18.6841 19.2403 19.241C18.1157 20.3656 16.5904 20.9973 15 20.9973C13.4096 20.9973 11.8843 20.3656 10.7597 19.241C9.63508 18.1164 9.00329 16.5911 9.00329 15.0007C9.00329 13.4102 9.63508 11.8849 10.7597 10.7603ZM22.3266 9.89701C22.4646 9.76685 22.5751 9.61031 22.6515 9.43668C22.7279 9.26305 22.7687 9.07586 22.7715 8.88618C22.7742 8.69651 22.7389 8.5082 22.6676 8.33242C22.5963 8.15664 22.4904 7.99695 22.3563 7.86281C22.2222 7.72868 22.0625 7.62282 21.8867 7.5515C21.7109 7.48019 21.5226 7.44487 21.3329 7.44763C21.1433 7.4504 20.9561 7.49119 20.7824 7.5676C20.6088 7.64401 20.4523 7.75448 20.3221 7.89247C20.0689 8.16083 19.9303 8.51729 19.9357 8.88618C19.9411 9.25507 20.09 9.60734 20.3509 9.86821C20.6118 10.1291 20.964 10.278 21.3329 10.2834C21.7018 10.2888 22.0583 10.1502 22.3266 9.89701Z" fill="white"/>
</svg>
