<svg width="20" height="20" viewBox="0 0 20 20" fill="none" xmlns="http://www.w3.org/2000/svg">
<path d="M7.725 2.14601C6.709 2.90201 6.436 4.09901 6.486 4.73601C6.55 5.51501 6.708 6.52901 6.708 6.52901C6.708 6.52901 6.395 6.69901 6.395 7.38301C6.504 9.10001 7.078 8.35901 7.196 9.11201C7.48 10.926 8.129 10.603 8.129 11.593C8.129 13.242 7.449 14.013 5.326 14.927C3.196 15.845 1 17 1 19V20H19V19C19 17 16.803 15.845 14.672 14.928C12.549 14.014 11.871 13.244 11.871 11.594C11.871 10.604 12.518 10.927 12.803 9.11301C12.922 8.36001 13.495 9.10101 13.606 7.38401C13.606 6.70001 13.292 6.53001 13.292 6.53001C13.292 6.53001 13.45 5.51601 13.513 4.73701C13.578 3.92001 13.115 2.17601 11.213 1.64101C10.88 1.30101 10.655 0.760009 11.679 0.217009C9.439 0.112009 8.918 1.28401 7.725 2.14601V2.14601Z" fill="white"/>
</svg>
