<svg width="30" height="30" viewBox="0 0 30 30" fill="none" xmlns="http://www.w3.org/2000/svg">
<path d="M24.9938 8.36072C26.1143 7.69083 26.9527 6.63601 27.3525 5.39322C26.2996 6.01797 25.1476 6.45806 23.9463 6.69447C22.2807 4.93263 19.6419 4.50388 17.5043 5.64779C15.3666 6.7917 14.2594 9.22508 14.8013 11.5882C10.4883 11.3717 6.46998 9.33436 3.74627 5.98322C2.32482 8.43499 3.05121 11.5692 5.40627 13.1457C4.55466 13.1183 3.72193 12.8878 2.97752 12.4732C2.97752 12.4957 2.97752 12.5182 2.97752 12.5407C2.97801 15.0947 4.77798 17.2946 7.28127 17.8007C6.49135 18.0156 5.66278 18.0473 4.85877 17.8932C5.56277 20.0773 7.57571 21.5736 9.87002 21.6182C7.96981 23.1096 5.62311 23.9184 3.20752 23.9145C2.77936 23.9151 2.35153 23.8905 1.92627 23.8407C4.37926 25.417 7.23423 26.2537 10.15 26.2507C14.2066 26.2786 18.1051 24.6793 20.9734 21.8107C23.8418 18.9421 25.4407 15.0435 25.4125 10.987C25.4125 10.7545 25.4071 10.5232 25.3963 10.2932C26.4468 9.53397 27.3535 8.59341 28.0738 7.51572C27.095 7.94955 26.0569 8.23437 24.9938 8.36072Z" fill="white"/>
</svg>
