<svg width="30" height="30" viewBox="0 0 30 30" fill="none" xmlns="http://www.w3.org/2000/svg">
<path d="M26.9738 8.56805C27.1488 7.9868 26.9737 7.56055 26.1462 7.56055H23.405C22.7075 7.56055 22.3888 7.9293 22.2137 8.3343C22.2137 8.3343 20.82 11.733 18.845 13.9368C18.2075 14.578 17.9163 14.7805 17.5688 14.7805C17.395 14.7805 17.1425 14.578 17.1425 13.9968V8.56805C17.1425 7.87055 16.9413 7.56055 16.36 7.56055H12.0525C11.6175 7.56055 11.355 7.88305 11.355 8.19055C11.355 8.85055 12.3425 9.00305 12.4438 10.863V14.898C12.4438 15.7818 12.285 15.943 11.935 15.943C11.0063 15.943 8.74625 12.5318 7.405 8.6268C7.14375 7.86805 6.88 7.5618 6.18 7.5618H3.44C2.65625 7.5618 2.5 7.93055 2.5 8.33555C2.5 9.06305 3.42875 12.663 6.82625 17.4243C9.09125 20.6755 12.28 22.438 15.185 22.438C16.9262 22.438 17.1413 22.0468 17.1413 21.3718V18.9143C17.1413 18.1318 17.3075 17.9743 17.8587 17.9743C18.2638 17.9743 18.9612 18.1793 20.5875 19.7455C22.445 21.603 22.7525 22.4368 23.7963 22.4368H26.5363C27.3188 22.4368 27.71 22.0455 27.485 21.273C27.2388 20.5043 26.3512 19.3855 25.1737 18.0618C24.5338 17.3068 23.5775 16.4943 23.2862 16.088C22.88 15.5643 22.9975 15.333 23.2862 14.868C23.2875 14.8693 26.6263 10.1668 26.9738 8.56805Z" fill="white"/>
</svg>
